<svg width="30" height="30" viewBox="0 0 30 30" fill="none" xmlns="http://www.w3.org/2000/svg">
<path d="M13.9196 20.9803L12.2197 19.2803C11.9268 18.9874 11.9268 18.5126 12.2197 18.2197C12.5126 17.9268 12.9874 17.9268 13.2803 18.2197L16.2803 21.2197C16.5732 21.5126 16.5732 21.9874 16.2803 22.2803L13.2803 25.2803C12.9874 25.5732 12.5126 25.5732 12.2197 25.2803C11.9268 24.9874 11.9268 24.5126 12.2197 24.2197L13.9566 22.4827C12.5501 22.436 11.1946 22.2953 9.91795 22.0718C11.0062 25.9404 12.9344 28.5 15 28.5C18.0077 28.5 20.724 23.0733 20.9803 16.0804L19.2803 17.7803C18.9874 18.0732 18.5126 18.0732 18.2197 17.7803C17.9268 17.4874 17.9268 17.0126 18.2197 16.7197L21.2197 13.7197C21.5126 13.4268 21.9874 13.4268 22.2803 13.7197L25.2803 16.7197C25.5732 17.0126 25.5732 17.4874 25.2803 17.7803C24.9874 18.0732 24.5126 18.0732 24.2197 17.7803L22.4827 16.0434C22.2251 23.7978 19.1121 30 15 30C11.9637 30 9.47213 26.6185 8.27254 21.7275C3.38152 20.5279 0 18.0363 0 15C0 11.9637 3.38152 9.47213 8.27254 8.27254C9.47213 3.38152 11.9637 0 15 0C17.2533 0 19.2396 1.85833 20.6151 4.96117C20.7829 5.33984 20.612 5.7829 20.2334 5.95077C19.8547 6.11863 19.4116 5.94773 19.2438 5.56906C18.0825 2.94949 16.5332 1.5 15 1.5C12.9344 1.5 11.0062 4.05959 9.91795 7.92823C11.5076 7.64987 13.2195 7.5 15 7.5C23.2338 7.5 30 10.705 30 15C30 17.2533 28.1417 19.2396 25.0388 20.6151C24.6602 20.7829 24.2171 20.612 24.0492 20.2334C23.8814 19.8547 24.0523 19.4116 24.4309 19.2438C27.0505 18.0825 28.5 16.5332 28.5 15C28.5 11.8391 22.5063 9 15 9C13.0487 9 11.1995 9.19187 9.53137 9.53137C9.19187 11.1995 9 13.0487 9 15C9 16.9513 9.19187 18.8005 9.53137 20.4686C10.8885 20.7448 12.3654 20.9233 13.9196 20.9803ZM7.92823 9.91795C4.05959 11.0062 1.5 12.9344 1.5 15C1.5 17.0656 4.05959 18.9938 7.92823 20.0821C7.64987 18.4924 7.5 16.7805 7.5 15C7.5 13.2195 7.64987 11.5076 7.92823 9.91795Z" fill="white" fill-opacity="0.85"/>
</svg>
